{
  "accessors": [
    {
      "bufferView": 2,
      "componentType": 5126,
      "count": 1456,
      "max": [
        1.1889618635177612,
        1.5889618396759033,
        -0.01882309466600418
      ],
      "min": [
        -1.1889618635177612,
        -1.5889618396759033,
        -0.13753928244113922
      ],
      "type": "VEC3"
    },
    {
      "bufferView": 2,
      "byteOffset": 17472,
      "componentType": 5126,
      "count": 1456,
      "max": [
        1.0,
        1.0,
        1.0
      ],
      "min": [
        -1.0,
        -1.0,
        -1.0
      ],
      "type": "VEC3"
    },
    {
      "bufferView": 3,
      "componentType": 5126,
      "count": 1456,
      "max": [
        1.0,
        1.0,
        1.0,
        1.0
      ],
      "min": [
        -1.0,
        -1.0,
        -1.0,
        -1.0
      ],
      "type": "VEC4"
    },
    {
      "bufferView": 1,
      "componentType": 5126,
      "count": 1456,
      "max": [
        0.9944416880607605,
        0.9986571073532104
      ],
      "min": [
        0.0009921395685523748,
        0.006167173385620117
      ],
      "type": "VEC2"
    },
    {
      "bufferView": 0,
      "componentType": 5125,
      "count": 2634,
      "type": "SCALAR"
    },
    {
      "bufferView": 2,
      "byteOffset": 34944,
      "componentType": 5126,
      "count": 160,
      "max": [
        1.4230120182037354,
        1.8230119943618774,
        0.1028822585940361
      ],
      "min": [
        -1.4230120182037354,
        -1.8230119943618774,
        -0.01882309466600418
      ],
      "type": "VEC3"
    },
    {
      "bufferView": 2,
      "byteOffset": 36864,
      "componentType": 5126,
      "count": 160,
      "max": [
        0.5773618817329407,
        0.5773562788963318,
        0.9929766654968262
      ],
      "min": [
        -0.5773518681526184,
        -0.5773565173149109,
        -0.9988973736763
      ],
      "type": "VEC3"
    },
    {
      "bufferView": 3,
      "byteOffset": 23296,
      "componentType": 5126,
      "count": 160,
      "max": [
        0.9994488954544067,
        0.9994488954544067,
        0.40826448798179626,
        1.0
      ],
      "min": [
        -0.9994488954544067,
        -0.9994488954544067,
        -0.40826788544654846,
        1.0
      ],
      "type": "VEC4"
    },
    {
      "bufferView": 1,
      "byteOffset": 11648,
      "componentType": 5126,
      "count": 160,
      "max": [
        0.6668837666511536,
        0.6865993142127991
      ],
      "min": [
        0.008662387728691101,
        0.01095341145992279
      ],
      "type": "VEC2"
    },
    {
      "bufferView": 0,
      "byteOffset": 10536,
      "componentType": 5125,
      "count": 432,
      "type": "SCALAR"
    },
    {
      "bufferView": 2,
      "byteOffset": 38784,
      "componentType": 5126,
      "count": 4,
      "max": [
        1.1010053157806396,
        1.5013706684112549,
        0.0
      ],
      "min": [
        -1.1010053157806396,
        -1.5013706684112549,
        0.0
      ],
      "type": "VEC3"
    },
    {
      "bufferView": 2,
      "byteOffset": 38832,
      "componentType": 5126,
      "count": 4,
      "max": [
        0.0,
        0.0,
        1.0
      ],
      "min": [
        0.0,
        0.0,
        1.0
      ],
      "type": "VEC3"
    },
    {
      "bufferView": 3,
      "byteOffset": 25856,
      "componentType": 5126,
      "count": 4,
      "max": [
        2.4155329469977005e-07,
        -1.0,
        0.0,
        1.0
      ],
      "min": [
        8.865050205031366e-08,
        -1.0,
        0.0,
        1.0
      ],
      "type": "VEC4"
    },
    {
      "bufferView": 1,
      "byteOffset": 12928,
      "componentType": 5126,
      "count": 4,
      "max": [
        0.9999006390571594,
        0.9862209558486938
      ],
      "min": [
        9.929388761520386e-05,
        9.930133819580078e-05
      ],
      "type": "VEC2"
    },
    {
      "bufferView": 0,
      "byteOffset": 12264,
      "componentType": 5125,
      "count": 6,
      "type": "SCALAR"
    }
  ],
  "asset": {
    "extras": {
      "author": "Pedro Belthori (https://sketchfab.com/pedrobelthori)",
      "license": "CC-BY-4.0 (http://creativecommons.org/licenses/by/4.0/)",
      "source": "https://sketchfab.com/3d-models/wooden-art-frame-stanczyk-1862-690aa11fdd2348e48f915b01ad2258dc",
      "title": "Wooden art frame - Stańczyk (1862)"
    },
    "generator": "Sketchfab-16.73.0",
    "version": "2.0"
  },
  "bufferViews": [
    {
      "buffer": 0,
      "byteLength": 12288,
      "name": "floatBufferViews",
      "target": 34963
    },
    {
      "buffer": 0,
      "byteLength": 12960,
      "byteOffset": 12288,
      "byteStride": 8,
      "name": "floatBufferViews",
      "target": 34962
    },
    {
      "buffer": 0,
      "byteLength": 38880,
      "byteOffset": 25248,
      "byteStride": 12,
      "name": "floatBufferViews",
      "target": 34962
    },
    {
      "buffer": 0,
      "byteLength": 25920,
      "byteOffset": 64128,
      "byteStride": 16,
      "name": "floatBufferViews",
      "target": 34962
    }
  ],
  "buffers": [
    {
      "byteLength": 90048,
      "uri": "scene.bin"
    }
  ],
  "extensionsUsed": [
    "KHR_materials_specular"
  ],
  "images": [
    {
      "uri": "textures/Mat02_baseColor.png"
    },
    {
      "uri": "textures/Mat02_metallicRoughness.png"
    },
    {
      "uri": "textures/Mat02_normal.png"
    },
    {
      "uri": "textures/Mat01_baseColor.png"
    },
    {
      "uri": "textures/Mat01_metallicRoughness.png"
    },
    {
      "uri": "textures/Mat01_normal.png"
    },
    {
      "uri": "textures/Painting_baseColor.jpeg"
    },
    {
      "uri": "textures/Painting_metallicRoughness.png"
    },
    {
      "uri": "textures/Painting_normal.png"
    }
  ],
  "materials": [
    {
      "doubleSided": true,
      "name": "Mat02",
      "normalTexture": {
        "index": 2
      },
      "occlusionTexture": {
        "index": 1
      },
      "pbrMetallicRoughness": {
        "baseColorTexture": {
          "index": 0
        },
        "metallicRoughnessTexture": {
          "index": 1
        }
      }
    },
    {
      "doubleSided": true,
      "name": "Mat01",
      "normalTexture": {
        "index": 5
      },
      "occlusionTexture": {
        "index": 4
      },
      "pbrMetallicRoughness": {
        "baseColorTexture": {
          "index": 3
        },
        "metallicRoughnessTexture": {
          "index": 4
        }
      }
    },
    {
      "doubleSided": true,
      "extensions": {
        "KHR_materials_specular": {
          "specularColorFactor": [
            1.0,
            1.0,
            1.0
          ],
          "specularFactor": 0.4100274497
        }
      },
      "name": "Painting",
      "normalTexture": {
        "index": 8
      },
      "pbrMetallicRoughness": {
        "baseColorTexture": {
          "index": 6
        },
        "metallicFactor": 0.0,
        "metallicRoughnessTexture": {
          "index": 7
        }
      }
    }
  ],
  "meshes": [
    {
      "name": "Painting1v2_Mat02_0",
      "primitives": [
        {
          "attributes": {
            "NORMAL": 1,
            "POSITION": 0,
            "TANGENT": 2,
            "TEXCOORD_0": 3
          },
          "indices": 4,
          "material": 0,
          "mode": 4
        }
      ]
    },
    {
      "name": "Painting1v2_Mat01_0",
      "primitives": [
        {
          "attributes": {
            "NORMAL": 6,
            "POSITION": 5,
            "TANGENT": 7,
            "TEXCOORD_0": 8
          },
          "indices": 9,
          "material": 1,
          "mode": 4
        }
      ]
    },
    {
      "name": "Painting1v2_Painting_0",
      "primitives": [
        {
          "attributes": {
            "NORMAL": 11,
            "POSITION": 10,
            "TANGENT": 12,
            "TEXCOORD_0": 13
          },
          "indices": 14,
          "material": 2,
          "mode": 4
        }
      ]
    }
  ],
  "nodes": [
    {
      "children": [
        1
      ],
      "matrix": [
        1.0,
        0.0,
        0.0,
        0.0,
        0.0,
        2.220446049250313e-16,
        -1.0,
        0.0,
        0.0,
        1.0,
        2.220446049250313e-16,
        0.0,
        0.0,
        0.0,
        0.0,
        1.0
      ],
      "name": "Sketchfab_model"
    },
    {
      "children": [
        2
      ],
      "matrix": [
        1.0,
        0.0,
        0.0,
        0.0,
        0.0,
        0.0,
        1.0,
        0.0,
        0.0,
        -1.0,
        0.0,
        0.0,
        0.0,
        0.0,
        0.0,
        1.0
      ],
      "name": "b49f9e1eed1b4638abab71692e8b2aec.fbx"
    },
    {
      "children": [
        3
      ],
      "name": "RootNode"
    },
    {
      "children": [
        4,
        5,
        6
      ],
      "matrix": [
        7.549789948768648e-06,
        99.99999999999973,
        0.0,
        0.0,
        -7.549789954319763e-06,
        5.551115123125783e-13,
        -99.99999999999973,
        0.0,
        -99.99999999999945,
        7.549789954319763e-06,
        7.549789948768648e-06,
        0.0,
        0.0,
        0.0,
        0.0,
        1.0
      ],
      "name": "Painting1v2"
    },
    {
      "mesh": 0,
      "name": "Painting1v2_Mat02_0"
    },
    {
      "mesh": 1,
      "name": "Painting1v2_Mat01_0"
    },
    {
      "mesh": 2,
      "name": "Painting1v2_Painting_0"
    }
  ],
  "samplers": [
    {
      "magFilter": 9729,
      "minFilter": 9987,
      "wrapS": 10497,
      "wrapT": 10497
    }
  ],
  "scene": 0,
  "scenes": [
    {
      "name": "Sketchfab_Scene",
      "nodes": [
        0
      ]
    }
  ],
  "textures": [
    {
      "sampler": 0,
      "source": 0
    },
    {
      "sampler": 0,
      "source": 1
    },
    {
      "sampler": 0,
      "source": 2
    },
    {
      "sampler": 0,
      "source": 3
    },
    {
      "sampler": 0,
      "source": 4
    },
    {
      "sampler": 0,
      "source": 5
    },
    {
      "sampler": 0,
      "source": 6
    },
    {
      "sampler": 0,
      "source": 7
    },
    {
      "sampler": 0,
      "source": 8
    }
  ]
}
