{
  "accessors": [
    {
      "bufferView": 3,
      "componentType": 5126,
      "count": 3195,
      "max": [
        1.6633167266845703,
        2.304511547088623,
        0.5977059602737427
      ],
      "min": [
        -1.7528040409088135,
        -0.5594367980957031,
        -0.5693098902702332
      ],
      "type": "VEC3"
    },
    {
      "bufferView": 3,
      "byteOffset": 38340,
      "componentType": 5126,
      "count": 3195,
      "max": [
        1.0,
        1.0,
        1.0
      ],
      "min": [
        -1.0,
        -1.0,
        -1.0
      ],
      "type": "VEC3"
    },
    {
      "bufferView": 4,
      "componentType": 5126,
      "count": 3195,
      "max": [
        0.9999989867210388,
        0.9999073147773743,
        0.9999420642852783,
        1.0
      ],
      "min": [
        -1.0,
        -1.0,
        -1.0,
        1.0
      ],
      "type": "VEC4"
    },
    {
      "bufferView": 2,
      "componentType": 5126,
      "count": 3195,
      "max": [
        0.9940510392189026,
        0.9857515692710876
      ],
      "min": [
        0.005948908627033234,
        0.005948908627033234
      ],
      "type": "VEC2"
    },
    {
      "bufferView": 1,
      "componentType": 5125,
      "count": 10278,
      "type": "SCALAR"
    },
    {
      "bufferView": 5,
      "componentType": 5126,
      "count": 9,
      "max": [
        1.0,
        5.486952048272542e-08,
        1.8354903374984133e-07,
        0.0,
        0.0,
        1.0000001192092896,
        6.306933308941609e-10,
        0.0,
        1.0,
        5.026057186814734e-15,
        1.0,
        0.0,
        0.6500235795974731,
        1.1161729097366333,
        1.8812716717775402e-08,
        1.0
      ],
      "min": [
        -2.3996632236844562e-08,
        -1.0000001192092896,
        -1.1851367531789947e-07,
        0.0,
        -4.965519906363625e-07,
        1.185137037396089e-07,
        -1.0,
        0.0,
        -1.8354903374984133e-07,
        -2.3300975371398636e-08,
        -4.965519906363625e-07,
        0.0,
        -0.6699764728546143,
        -2.1597135066986084,
        -5.515972816283465e-07,
        1.0
      ],
      "type": "MAT4"
    },
    {
      "bufferView": 0,
      "componentType": 5123,
      "count": 3195,
      "type": "VEC4"
    },
    {
      "bufferView": 4,
      "byteOffset": 51120,
      "componentType": 5126,
      "count": 3195,
      "max": [
        1.0,
        0.0,
        0.0,
        0.0
      ],
      "min": [
        1.0,
        0.0,
        0.0,
        0.0
      ],
      "type": "VEC4"
    },
    {
      "bufferView": 6,
      "componentType": 5126,
      "count": 20,
      "max": [
        7.5
      ],
      "min": [
        0.0833333358168602
      ],
      "type": "SCALAR"
    },
    {
      "bufferView": 8,
      "componentType": 5126,
      "count": 20,
      "max": [
        0.9510565996170044,
        0.0,
        0.0,
        1.0
      ],
      "min": [
        -0.08773553371429443,
        0.0,
        0.0,
        0.3090168535709381
      ],
      "type": "VEC4"
    },
    {
      "bufferView": 6,
      "byteOffset": 80,
      "componentType": 5126,
      "count": 13,
      "max": [
        7.5
      ],
      "min": [
        0.0833333358168602
      ],
      "type": "SCALAR"
    },
    {
      "bufferView": 7,
      "componentType": 5126,
      "count": 13,
      "max": [
        1.0,
        1.000000238418579,
        1.000000238418579
      ],
      "min": [
        1.0,
        0.9999998211860657,
        0.9999998211860657
      ],
      "type": "VEC3"
    },
    {
      "bufferView": 6,
      "byteOffset": 132,
      "componentType": 5126,
      "count": 23,
      "max": [
        7.5
      ],
      "min": [
        0.0833333358168602
      ],
      "type": "SCALAR"
    },
    {
      "bufferView": 8,
      "byteOffset": 320,
      "componentType": 5126,
      "count": 23,
      "max": [
        0.5877853035926819,
        0.0,
        0.0,
        1.0
      ],
      "min": [
        -0.05721611529588699,
        0.0,
        0.0,
        0.80901700258255
      ],
      "type": "VEC4"
    },
    {
      "bufferView": 6,
      "byteOffset": 224,
      "componentType": 5126,
      "count": 17,
      "max": [
        7.5
      ],
      "min": [
        0.0833333358168602
      ],
      "type": "SCALAR"
    },
    {
      "bufferView": 7,
      "byteOffset": 156,
      "componentType": 5126,
      "count": 17,
      "max": [
        1.0,
        1.0,
        1.0
      ],
      "min": [
        1.0,
        0.9999999403953552,
        0.9999999403953552
      ],
      "type": "VEC3"
    },
    {
      "bufferView": 6,
      "byteOffset": 292,
      "componentType": 5126,
      "count": 23,
      "max": [
        7.5
      ],
      "min": [
        0.0833333358168602
      ],
      "type": "SCALAR"
    },
    {
      "bufferView": 8,
      "byteOffset": 688,
      "componentType": 5126,
      "count": 23,
      "max": [
        1.0,
        0.0,
        0.0,
        1.0
      ],
      "min": [
        -0.09000615030527115,
        0.0,
        0.0,
        4.371138828673793e-08
      ],
      "type": "VEC4"
    },
    {
      "bufferView": 6,
      "byteOffset": 384,
      "componentType": 5126,
      "count": 18,
      "max": [
        7.5
      ],
      "min": [
        0.0833333358168602
      ],
      "type": "SCALAR"
    },
    {
      "bufferView": 7,
      "byteOffset": 360,
      "componentType": 5126,
      "count": 18,
      "max": [
        1.0,
        1.0,
        1.0
      ],
      "min": [
        1.0,
        0.9999999403953552,
        0.9999999403953552
      ],
      "type": "VEC3"
    },
    {
      "bufferView": 6,
      "byteOffset": 456,
      "componentType": 5126,
      "count": 23,
      "max": [
        7.5
      ],
      "min": [
        0.0833333358168602
      ],
      "type": "SCALAR"
    },
    {
      "bufferView": 8,
      "byteOffset": 1056,
      "componentType": 5126,
      "count": 23,
      "max": [
        0.05721611529588699,
        0.0,
        0.0,
        1.0
      ],
      "min": [
        -0.5877853035926819,
        0.0,
        0.0,
        0.80901700258255
      ],
      "type": "VEC4"
    },
    {
      "bufferView": 6,
      "byteOffset": 548,
      "componentType": 5126,
      "count": 17,
      "max": [
        7.5
      ],
      "min": [
        0.0833333358168602
      ],
      "type": "SCALAR"
    },
    {
      "bufferView": 7,
      "byteOffset": 576,
      "componentType": 5126,
      "count": 17,
      "max": [
        1.0,
        1.0,
        1.0
      ],
      "min": [
        1.0,
        0.9999999403953552,
        0.9999999403953552
      ],
      "type": "VEC3"
    },
    {
      "bufferView": 6,
      "byteOffset": 616,
      "componentType": 5126,
      "count": 23,
      "max": [
        7.5
      ],
      "min": [
        0.0833333358168602
      ],
      "type": "SCALAR"
    },
    {
      "bufferView": 8,
      "byteOffset": 1424,
      "componentType": 5126,
      "count": 23,
      "max": [
        0.30901700258255005,
        0.0,
        0.0,
        1.0
      ],
      "min": [
        -0.03053852915763855,
        0.0,
        0.0,
        0.9510564804077148
      ],
      "type": "VEC4"
    },
    {
      "bufferView": 6,
      "byteOffset": 708,
      "componentType": 5126,
      "count": 19,
      "max": [
        7.5
      ],
      "min": [
        0.0833333358168602
      ],
      "type": "SCALAR"
    },
    {
      "bufferView": 7,
      "byteOffset": 780,
      "componentType": 5126,
      "count": 19,
      "max": [
        1.0,
        1.0,
        1.0
      ],
      "min": [
        1.0,
        0.9999999403953552,
        0.9999999403953552
      ],
      "type": "VEC3"
    },
    {
      "bufferView": 6,
      "byteOffset": 784,
      "componentType": 5126,
      "count": 20,
      "max": [
        7.5
      ],
      "min": [
        0.0833333358168602
      ],
      "type": "SCALAR"
    },
    {
      "bufferView": 7,
      "byteOffset": 1008,
      "componentType": 5126,
      "count": 20,
      "max": [
        -1.5185604095458984,
        1.1161725521087646,
        -1.667452096398847e-07
      ],
      "min": [
        -1.6474144458770752,
        1.1161725521087646,
        -1.6674523806159414e-07
      ],
      "type": "VEC3"
    },
    {
      "bufferView": 6,
      "byteOffset": 864,
      "componentType": 5126,
      "count": 16,
      "max": [
        7.5
      ],
      "min": [
        0.0833333358168602
      ],
      "type": "SCALAR"
    },
    {
      "bufferView": 7,
      "byteOffset": 1248,
      "componentType": 5126,
      "count": 16,
      "max": [
        0.014231111854314804,
        4.2834954261779785,
        1.6422322346443252e-07
      ],
      "min": [
        0.014231057837605476,
        3.275886297225952,
        1.6359842902602395e-07
      ],
      "type": "VEC3"
    }
  ],
  "animations": [
    {
      "channels": [
        {
          "sampler": 0,
          "target": {
            "node": 9,
            "path": "rotation"
          }
        },
        {
          "sampler": 1,
          "target": {
            "node": 9,
            "path": "scale"
          }
        },
        {
          "sampler": 2,
          "target": {
            "node": 10,
            "path": "rotation"
          }
        },
        {
          "sampler": 3,
          "target": {
            "node": 10,
            "path": "scale"
          }
        },
        {
          "sampler": 4,
          "target": {
            "node": 11,
            "path": "rotation"
          }
        },
        {
          "sampler": 5,
          "target": {
            "node": 11,
            "path": "scale"
          }
        },
        {
          "sampler": 6,
          "target": {
            "node": 12,
            "path": "rotation"
          }
        },
        {
          "sampler": 7,
          "target": {
            "node": 12,
            "path": "scale"
          }
        },
        {
          "sampler": 8,
          "target": {
            "node": 13,
            "path": "rotation"
          }
        },
        {
          "sampler": 9,
          "target": {
            "node": 13,
            "path": "scale"
          }
        },
        {
          "sampler": 10,
          "target": {
            "node": 14,
            "path": "translation"
          }
        },
        {
          "sampler": 11,
          "target": {
            "node": 15,
            "path": "translation"
          }
        }
      ],
      "name": "Open",
      "samplers": [
        {
          "input": 8,
          "interpolation": "LINEAR",
          "output": 9
        },
        {
          "input": 10,
          "interpolation": "LINEAR",
          "output": 11
        },
        {
          "input": 12,
          "interpolation": "LINEAR",
          "output": 13
        },
        {
          "input": 14,
          "interpolation": "LINEAR",
          "output": 15
        },
        {
          "input": 16,
          "interpolation": "LINEAR",
          "output": 17
        },
        {
          "input": 18,
          "interpolation": "LINEAR",
          "output": 19
        },
        {
          "input": 20,
          "interpolation": "LINEAR",
          "output": 21
        },
        {
          "input": 22,
          "interpolation": "LINEAR",
          "output": 23
        },
        {
          "input": 24,
          "interpolation": "LINEAR",
          "output": 25
        },
        {
          "input": 26,
          "interpolation": "LINEAR",
          "output": 27
        },
        {
          "input": 28,
          "interpolation": "LINEAR",
          "output": 29
        },
        {
          "input": 30,
          "interpolation": "LINEAR",
          "output": 31
        }
      ]
    }
  ],
  "asset": {
    "extras": {
      "author": "pavito (https://sketchfab.com/pavito)",
      "license": "CC-BY-4.0 (http://creativecommons.org/licenses/by/4.0/)",
      "source": "https://sketchfab.com/3d-models/combination-padlock-3a99690fc35a47c0b275b1254b921997",
      "title": "Combination padlock"
    },
    "generator": "Sketchfab-12.67.0",
    "version": "2.0"
  },
  "bufferViews": [
    {
      "buffer": 0,
      "byteLength": 25560,
      "byteStride": 8,
      "name": "shortBufferViews",
      "target": 34962
    },
    {
      "buffer": 0,
      "byteLength": 41112,
      "byteOffset": 25560,
      "name": "floatBufferViews",
      "target": 34963
    },
    {
      "buffer": 0,
      "byteLength": 25560,
      "byteOffset": 66672,
      "byteStride": 8,
      "name": "floatBufferViews",
      "target": 34962
    },
    {
      "buffer": 0,
      "byteLength": 76680,
      "byteOffset": 92232,
      "byteStride": 12,
      "name": "floatBufferViews",
      "target": 34962
    },
    {
      "buffer": 0,
      "byteLength": 102240,
      "byteOffset": 168912,
      "byteStride": 16,
      "name": "floatBufferViews",
      "target": 34962
    },
    {
      "buffer": 0,
      "byteLength": 576,
      "byteOffset": 271152,
      "name": "floatBufferViews"
    },
    {
      "buffer": 0,
      "byteLength": 928,
      "byteOffset": 271728,
      "name": "floatBufferViews"
    },
    {
      "buffer": 0,
      "byteLength": 1440,
      "byteOffset": 272656,
      "byteStride": 12,
      "name": "floatBufferViews"
    },
    {
      "buffer": 0,
      "byteLength": 1792,
      "byteOffset": 274096,
      "byteStride": 16,
      "name": "floatBufferViews"
    }
  ],
  "buffers": [
    {
      "byteLength": 275888,
      "uri": "scene.bin"
    }
  ],
  "images": [
    {
      "uri": "textures/nOmba2_baseColor.png"
    },
    {
      "uri": "textures/nOmba2_metallicRoughness.png"
    },
    {
      "uri": "textures/nOmba2_normal.png"
    }
  ],
  "materials": [
    {
      "doubleSided": true,
      "name": "nOmba2",
      "normalTexture": {
        "index": 2
      },
      "pbrMetallicRoughness": {
        "baseColorTexture": {
          "index": 0
        },
        "metallicRoughnessTexture": {
          "index": 1
        }
      }
    }
  ],
  "meshes": [
    {
      "name": "Object_0",
      "primitives": [
        {
          "attributes": {
            "JOINTS_0": 6,
            "NORMAL": 1,
            "POSITION": 0,
            "TANGENT": 2,
            "TEXCOORD_0": 3,
            "TEXCOORD_1": 3,
            "TEXCOORD_2": 3,
            "TEXCOORD_3": 3,
            "WEIGHTS_0": 7
          },
          "indices": 4,
          "material": 0,
          "mode": 4
        }
      ]
    }
  ],
  "nodes": [
    {
      "children": [
        1
      ],
      "matrix": [
        1.0,
        0.0,
        0.0,
        0.0,
        0.0,
        2.220446049250313e-16,
        -1.0,
        0.0,
        0.0,
        1.0,
        2.220446049250313e-16,
        0.0,
        0.0,
        0.0,
        0.0,
        1.0
      ],
      "name": "Sketchfab_model"
    },
    {
      "children": [
        2
      ],
      "name": "root"
    },
    {
      "children": [
        3
      ],
      "matrix": [
        1.0,
        0.0,
        0.0,
        0.0,
        0.0,
        2.220446049250313e-16,
        1.0,
        0.0,
        0.0,
        -1.0,
        2.220446049250313e-16,
        0.0,
        0.0,
        0.0,
        0.0,
        1.0
      ],
      "name": "GLTF_SceneRootNode"
    },
    {
      "children": [
        4
      ],
      "matrix": [
        1.0,
        0.0,
        0.0,
        0.0,
        0.0,
        1.0,
        0.0,
        0.0,
        0.0,
        0.0,
        1.0,
        0.0,
        0.0,
        -0.42212289571762085,
        0.0,
        1.0
      ],
      "name": "Armature_9"
    },
    {
      "children": [
        5,
        7,
        6
      ],
      "name": "GLTF_created_0"
    },
    {
      "children": [
        8
      ],
      "name": "GLTF_created_0_rootJoint"
    },
    {
      "name": "Padlock_8"
    },
    {
      "mesh": 0,
      "name": "Object_7",
      "skin": 0
    },
    {
      "children": [
        9,
        10,
        11,
        12,
        13,
        14,
        15
      ],
      "name": "Root_7",
      "translation": [
        0.0,
        -0.6940500140190125,
        0.0
      ]
    },
    {
      "name": "Round1_0",
      "rotation": [
        0.9510565996170044,
        0.0,
        0.0,
        0.3090168535709381
      ],
      "scale": [
        1.0,
        1.000000238418579,
        1.000000238418579
      ],
      "translation": [
        -0.6500235795974731,
        1.1161729097366333,
        -1.8812716717775402e-08
      ]
    },
    {
      "name": "Round2_1",
      "rotation": [
        0.5877853035926819,
        0.0,
        0.0,
        0.80901700258255
      ],
      "translation": [
        -0.32002314925193787,
        1.1161729097366333,
        -1.8812716717775402e-08
      ]
    },
    {
      "name": "Round3_2",
      "rotation": [
        1.0,
        0.0,
        0.0,
        4.371138828673793e-08
      ],
      "translation": [
        0.009976526722311974,
        1.1161730289459229,
        -1.8812716717775402e-08
      ]
    },
    {
      "name": "Round4_3",
      "rotation": [
        -0.5877853035926819,
        0.0,
        0.0,
        0.80901700258255
      ],
      "translation": [
        0.33997681736946106,
        1.1161730289459229,
        -1.8812716717775402e-08
      ]
    },
    {
      "name": "Round5_4",
      "rotation": [
        0.30901700258255005,
        0.0,
        0.0,
        0.9510564804077148
      ],
      "translation": [
        0.6699764728546143,
        1.1161730289459229,
        -1.8812716717775402e-08
      ]
    },
    {
      "name": "Button_5",
      "rotation": [
        0.5000001192092896,
        -0.5000001788139343,
        0.49999985098838806,
        0.49999991059303284
      ],
      "scale": [
        1.0,
        0.9999999403953552,
        1.0
      ],
      "translation": [
        -1.6366832256317139,
        1.1161725521087646,
        -1.6674523806159414e-07
      ]
    },
    {
      "name": "MetalPipe_6",
      "rotation": [
        -3.1534916344888586e-10,
        9.17745097694933e-08,
        -2.743475846500587e-08,
        1.0
      ],
      "scale": [
        1.0,
        0.9999999403953552,
        1.0
      ],
      "translation": [
        0.014231057837605476,
        3.275886297225952,
        1.6422322346443252e-07
      ]
    }
  ],
  "samplers": [
    {
      "magFilter": 9729,
      "minFilter": 9987,
      "wrapS": 10497,
      "wrapT": 10497
    }
  ],
  "scene": 0,
  "scenes": [
    {
      "name": "Sketchfab_Scene",
      "nodes": [
        0
      ]
    }
  ],
  "skins": [
    {
      "inverseBindMatrices": 5,
      "joints": [
        5,
        8,
        9,
        10,
        11,
        12,
        13,
        14,
        15
      ],
      "skeleton": 5
    }
  ],
  "textures": [
    {
      "sampler": 0,
      "source": 0
    },
    {
      "sampler": 0,
      "source": 1
    },
    {
      "sampler": 0,
      "source": 2
    }
  ]
}
