{
  "accessors": [
    {
      "bufferView": 2,
      "componentType": 5126,
      "count": 1279,
      "max": [
        0.42275598645210266,
        5.242883205413818,
        0.43472200632095337
      ],
      "min": [
        -0.4229249954223633,
        -4.623820781707764,
        -0.5094280242919922
      ],
      "type": "VEC3"
    },
    {
      "bufferView": 2,
      "byteOffset": 15348,
      "componentType": 5126,
      "count": 1279,
      "max": [
        1.0,
        1.0,
        1.0
      ],
      "min": [
        -1.0,
        -1.0,
        -1.0
      ],
      "type": "VEC3"
    },
    {
      "bufferView": 3,
      "componentType": 5126,
      "count": 1279,
      "max": [
        0.9999982118606567,
        0.9999998807907104,
        0.9995825886726379,
        1.0
      ],
      "min": [
        -0.999963641166687,
        -0.3181537091732025,
        -0.9995792508125305,
        1.0
      ],
      "type": "VEC4"
    },
    {
      "bufferView": 1,
      "componentType": 5126,
      "count": 1279,
      "max": [
        0.9776579737663269,
        0.9652460217475891
      ],
      "min": [
        0.022342000156641006,
        0.022724000737071037
      ],
      "type": "VEC2"
    },
    {
      "bufferView": 0,
      "componentType": 5125,
      "count": 4794,
      "type": "SCALAR"
    }
  ],
  "asset": {
    "extras": {
      "author": "djetty (https://sketchfab.com/djetty)",
      "license": "CC-BY-4.0 (http://creativecommons.org/licenses/by/4.0/)",
      "source": "https://sketchfab.com/3d-models/old-pen-7a09c75d40e84b10acfd4f8c40e08375",
      "title": "Old Pen"
    },
    "generator": "Sketchfab-12.66.0",
    "version": "2.0"
  },
  "bufferViews": [
    {
      "buffer": 0,
      "byteLength": 19176,
      "name": "floatBufferViews",
      "target": 34963
    },
    {
      "buffer": 0,
      "byteLength": 10232,
      "byteOffset": 19176,
      "byteStride": 8,
      "name": "floatBufferViews",
      "target": 34962
    },
    {
      "buffer": 0,
      "byteLength": 30696,
      "byteOffset": 29408,
      "byteStride": 12,
      "name": "floatBufferViews",
      "target": 34962
    },
    {
      "buffer": 0,
      "byteLength": 20464,
      "byteOffset": 60104,
      "byteStride": 16,
      "name": "floatBufferViews",
      "target": 34962
    }
  ],
  "buffers": [
    {
      "byteLength": 80568,
      "uri": "scene.bin"
    }
  ],
  "images": [
    {
      "uri": "textures/None_baseColor.png"
    },
    {
      "uri": "textures/None_metallicRoughness.png"
    },
    {
      "uri": "textures/None_normal.png"
    }
  ],
  "materials": [
    {
      "doubleSided": true,
      "name": "None",
      "normalTexture": {
        "index": 2
      },
      "pbrMetallicRoughness": {
        "baseColorTexture": {
          "index": 0
        },
        "metallicRoughnessTexture": {
          "index": 1
        }
      }
    }
  ],
  "meshes": [
    {
      "name": "Object_0",
      "primitives": [
        {
          "attributes": {
            "NORMAL": 1,
            "POSITION": 0,
            "TANGENT": 2,
            "TEXCOORD_0": 3
          },
          "indices": 4,
          "material": 0,
          "mode": 4
        }
      ]
    }
  ],
  "nodes": [
    {
      "children": [
        1
      ],
      "matrix": [
        0.5415548086166382,
        -1.8666522985830126e-16,
        0.8406654596328735,
        0.0,
        0.8406654596328735,
        1.2024932352453237e-16,
        -0.5415548086166382,
        0.0,
        0.0,
        1.0,
        2.220446049250313e-16,
        0.0,
        -0.2602505087852478,
        3.149290004587415e-17,
        -0.1418314129114151,
        1.0
      ],
      "name": "Sketchfab_model"
    },
    {
      "children": [
        2
      ],
      "name": "OldPen.obj.cleaner.gles"
    },
    {
      "mesh": 0,
      "name": "Object_2"
    }
  ],
  "samplers": [
    {
      "magFilter": 9729,
      "minFilter": 9987,
      "wrapS": 10497,
      "wrapT": 10497
    }
  ],
  "scene": 0,
  "scenes": [
    {
      "name": "Sketchfab_Scene",
      "nodes": [
        0
      ]
    }
  ],
  "textures": [
    {
      "sampler": 0,
      "source": 0
    },
    {
      "sampler": 0,
      "source": 1
    },
    {
      "sampler": 0,
      "source": 2
    }
  ]
}
