{
  "accessors": [
    {
      "bufferView": 2,
      "componentType": 5126,
      "count": 65532,
      "max": [
        12.129918098449707,
        0.19891899824142456,
        12.723417282104492
      ],
      "min": [
        -12.626386642456055,
        -16.467805862426758,
        -13.520034790039063
      ],
      "type": "VEC3"
    },
    {
      "bufferView": 2,
      "byteOffset": 786384,
      "componentType": 5126,
      "count": 65532,
      "max": [
        0.999678909778595,
        0.9999998807907104,
        0.9999982714653015
      ],
      "min": [
        -0.9999929070472717,
        -0.9999947547912598,
        -0.9999937415122986
      ],
      "type": "VEC3"
    },
    {
      "bufferView": 1,
      "componentType": 5126,
      "count": 65532,
      "max": [
        0.9981759786605835,
        0.9992190003395081
      ],
      "min": [
        0.0007810000097379088,
        0.0007880000048317015
      ],
      "type": "VEC2"
    },
    {
      "bufferView": 0,
      "componentType": 5125,
      "count": 306660,
      "type": "SCALAR"
    },
    {
      "bufferView": 2,
      "byteOffset": 1572768,
      "componentType": 5126,
      "count": 65532,
      "max": [
        12.26010799407959,
        0.019943999126553535,
        13.263349533081055
      ],
      "min": [
        -10.812767028808594,
        -16.476886749267578,
        -12.015013694763184
      ],
      "type": "VEC3"
    },
    {
      "bufferView": 2,
      "byteOffset": 2359152,
      "componentType": 5126,
      "count": 65532,
      "max": [
        0.9999718070030212,
        0.9987772703170776,
        0.9999901056289673
      ],
      "min": [
        -0.9961429834365845,
        -0.9999998211860657,
        -0.9999541640281677
      ],
      "type": "VEC3"
    },
    {
      "bufferView": 1,
      "byteOffset": 524256,
      "componentType": 5126,
      "count": 65532,
      "max": [
        0.5438519716262817,
        0.9828109741210938
      ],
      "min": [
        0.0027199999894946814,
        0.28864601254463196
      ],
      "type": "VEC2"
    },
    {
      "bufferView": 0,
      "byteOffset": 1226640,
      "componentType": 5125,
      "count": 336039,
      "type": "SCALAR"
    },
    {
      "bufferView": 2,
      "byteOffset": 3145536,
      "componentType": 5126,
      "count": 65532,
      "max": [
        12.26010799407959,
        0.12044999748468399,
        13.263349533081055
      ],
      "min": [
        -11.551141738891602,
        -16.476886749267578,
        -12.015013694763184
      ],
      "type": "VEC3"
    },
    {
      "bufferView": 2,
      "byteOffset": 3931920,
      "componentType": 5126,
      "count": 65532,
      "max": [
        0.9999830722808838,
        0.9999169707298279,
        0.9999838471412659
      ],
      "min": [
        -0.9985384941101074,
        -0.9999995827674866,
        -0.9999541640281677
      ],
      "type": "VEC3"
    },
    {
      "bufferView": 1,
      "byteOffset": 1048512,
      "componentType": 5126,
      "count": 65532,
      "max": [
        0.5445160269737244,
        0.9992190003395081
      ],
      "min": [
        0.0007810000097379088,
        0.2843970060348511
      ],
      "type": "VEC2"
    },
    {
      "bufferView": 0,
      "byteOffset": 2570796,
      "componentType": 5125,
      "count": 290061,
      "type": "SCALAR"
    },
    {
      "bufferView": 2,
      "byteOffset": 4718304,
      "componentType": 5126,
      "count": 65532,
      "max": [
        11.396463394165039,
        0.16947700083255768,
        12.577924728393555
      ],
      "min": [
        -12.626386642456055,
        -15.999340057373047,
        -13.500569343566895
      ],
      "type": "VEC3"
    },
    {
      "bufferView": 2,
      "byteOffset": 5504688,
      "componentType": 5126,
      "count": 65532,
      "max": [
        0.9994577765464783,
        0.9999998807907104,
        0.9986820816993713
      ],
      "min": [
        -0.9999986290931702,
        -0.9999947547912598,
        -0.9999937415122986
      ],
      "type": "VEC3"
    },
    {
      "bufferView": 1,
      "byteOffset": 1572768,
      "componentType": 5126,
      "count": 65532,
      "max": [
        0.9788079857826233,
        0.9992190003395081
      ],
      "min": [
        0.03750000149011612,
        0.0009820000268518925
      ],
      "type": "VEC2"
    },
    {
      "bufferView": 0,
      "byteOffset": 3731040,
      "componentType": 5125,
      "count": 314466,
      "type": "SCALAR"
    },
    {
      "bufferView": 2,
      "byteOffset": 6291072,
      "componentType": 5126,
      "count": 63293,
      "max": [
        11.997228622436523,
        0.24329200387001038,
        12.707019805908203
      ],
      "min": [
        -12.542972564697266,
        -15.539608001708984,
        -13.520034790039063
      ],
      "type": "VEC3"
    },
    {
      "bufferView": 2,
      "byteOffset": 7050588,
      "componentType": 5126,
      "count": 63293,
      "max": [
        0.9994860291481018,
        1.0,
        0.9998056292533875
      ],
      "min": [
        -0.9999676942825317,
        -0.9999947547912598,
        -0.9999858140945435
      ],
      "type": "VEC3"
    },
    {
      "bufferView": 1,
      "byteOffset": 2097024,
      "componentType": 5126,
      "count": 63293,
      "max": [
        0.9969310164451599,
        0.9992190003395081
      ],
      "min": [
        0.0007810000097379088,
        0.0007929999846965075
      ],
      "type": "VEC2"
    },
    {
      "bufferView": 0,
      "byteOffset": 4988904,
      "componentType": 5125,
      "count": 252774,
      "type": "SCALAR"
    }
  ],
  "asset": {
    "extras": {
      "author": "Arkify 3D (https://sketchfab.com/arkify)",
      "license": "CC-BY-NC-4.0 (http://creativecommons.org/licenses/by-nc/4.0/)",
      "source": "https://sketchfab.com/3d-models/treasure-chest-wooden-jewelry-box-4d194b5c230b48779153427277f399d2",
      "title": "Treasure Chest Wooden Jewelry Box"
    },
    "generator": "Sketchfab-14.36.1",
    "version": "2.0"
  },
  "bufferViews": [
    {
      "buffer": 0,
      "byteLength": 6000000,
      "name": "floatBufferViews",
      "target": 34963
    },
    {
      "buffer": 0,
      "byteLength": 2603368,
      "byteOffset": 6000000,
      "byteStride": 8,
      "name": "floatBufferViews",
      "target": 34962
    },
    {
      "buffer": 0,
      "byteLength": 7810104,
      "byteOffset": 8603368,
      "byteStride": 12,
      "name": "floatBufferViews",
      "target": 34962
    }
  ],
  "buffers": [
    {
      "byteLength": 16413472,
      "uri": "scene.bin"
    }
  ],
  "images": [
    {
      "uri": "textures/material_0_baseColor.png"
    }
  ],
  "materials": [
    {
      "doubleSided": true,
      "name": "material_0",
      "pbrMetallicRoughness": {
        "baseColorTexture": {
          "index": 0
        },
        "metallicFactor": 0.0,
        "roughnessFactor": 0.6
      }
    }
  ],
  "meshes": [
    {
      "name": "Object_0",
      "primitives": [
        {
          "attributes": {
            "NORMAL": 1,
            "POSITION": 0,
            "TEXCOORD_0": 2
          },
          "indices": 3,
          "material": 0,
          "mode": 4
        }
      ]
    },
    {
      "name": "Object_1",
      "primitives": [
        {
          "attributes": {
            "NORMAL": 5,
            "POSITION": 4,
            "TEXCOORD_0": 6
          },
          "indices": 7,
          "material": 0,
          "mode": 4
        }
      ]
    },
    {
      "name": "Object_2",
      "primitives": [
        {
          "attributes": {
            "NORMAL": 9,
            "POSITION": 8,
            "TEXCOORD_0": 10
          },
          "indices": 11,
          "material": 0,
          "mode": 4
        }
      ]
    },
    {
      "name": "Object_3",
      "primitives": [
        {
          "attributes": {
            "NORMAL": 13,
            "POSITION": 12,
            "TEXCOORD_0": 14
          },
          "indices": 15,
          "material": 0,
          "mode": 4
        }
      ]
    },
    {
      "name": "Object_4",
      "primitives": [
        {
          "attributes": {
            "NORMAL": 17,
            "POSITION": 16,
            "TEXCOORD_0": 18
          },
          "indices": 19,
          "material": 0,
          "mode": 4
        }
      ]
    }
  ],
  "nodes": [
    {
      "children": [
        1
      ],
      "matrix": [
        1.0,
        -2.2204460492503136e-16,
        2.8327693431939985e-16,
        0.0,
        -2.220446049250313e-16,
        -1.0,
        -4.440892098500626e-16,
        0.0,
        2.832769343193999e-16,
        4.440892098500626e-16,
        -1.0,
        0.0,
        0.0,
        0.0,
        0.0,
        1.0
      ],
      "name": "Sketchfab_model"
    },
    {
      "children": [
        2,
        3,
        4,
        5,
        6
      ],
      "name": "Chest.obj.cleaner.materialmerger.gles"
    },
    {
      "mesh": 0,
      "name": "Object_2"
    },
    {
      "mesh": 1,
      "name": "Object_3"
    },
    {
      "mesh": 2,
      "name": "Object_4"
    },
    {
      "mesh": 3,
      "name": "Object_5"
    },
    {
      "mesh": 4,
      "name": "Object_6"
    }
  ],
  "samplers": [
    {
      "magFilter": 9729,
      "minFilter": 9987,
      "wrapS": 10497,
      "wrapT": 10497
    }
  ],
  "scene": 0,
  "scenes": [
    {
      "name": "Sketchfab_Scene",
      "nodes": [
        0
      ]
    }
  ],
  "textures": [
    {
      "sampler": 0,
      "source": 0
    }
  ]
}
