{
  "accessors": [
    {
      "bufferView": 2,
      "componentType": 5126,
      "count": 1351,
      "max": [
        0.1664203405380249,
        0.088812917470932,
        0.07853575795888901
      ],
      "min": [
        -0.1645890474319458,
        -0.0933205783367157,
        -0.0744200274348259
      ],
      "type": "VEC3"
    },
    {
      "bufferView": 2,
      "byteOffset": 16212,
      "componentType": 5126,
      "count": 1351,
      "max": [
        0.9999299049377441,
        0.9999648332595825,
        0.9999897480010986
      ],
      "min": [
        -0.9999699592590332,
        -0.9999961853027344,
        -0.9999996423721313
      ],
      "type": "VEC3"
    },
    {
      "bufferView": 3,
      "componentType": 5126,
      "count": 1351,
      "max": [
        0.9861896634101868,
        0.9999998807907104,
        0.9994166493415833,
        1.0
      ],
      "min": [
        -0.9999628663063049,
        -0.9928092360496521,
        -0.9999887347221375,
        -1.0
      ],
      "type": "VEC4"
    },
    {
      "bufferView": 1,
      "componentType": 5126,
      "count": 1351,
      "max": [
        0.9982019066810608,
        0.9971994161605835
      ],
      "min": [
        0.0017981651471927762,
        0.0017981651471927762
      ],
      "type": "VEC2"
    },
    {
      "bufferView": 0,
      "componentType": 5125,
      "count": 6936,
      "type": "SCALAR"
    }
  ],
  "asset": {
    "extras": {
      "author": "Meerschaum Digital (https://sketchfab.com/meerschaumdigital)",
      "license": "CC-BY-4.0 (http://creativecommons.org/licenses/by/4.0/)",
      "source": "https://sketchfab.com/3d-models/small-chest-game-ready-2k-pbr-b3f4d08724d849abbcb096e31d5102f0",
      "title": "Small Chest (Game Ready / 2K PBR)"
    },
    "generator": "Sketchfab-12.68.0",
    "version": "2.0"
  },
  "bufferViews": [
    {
      "buffer": 0,
      "byteLength": 27744,
      "name": "floatBufferViews",
      "target": 34963
    },
    {
      "buffer": 0,
      "byteLength": 10808,
      "byteOffset": 27744,
      "byteStride": 8,
      "name": "floatBufferViews",
      "target": 34962
    },
    {
      "buffer": 0,
      "byteLength": 32424,
      "byteOffset": 38552,
      "byteStride": 12,
      "name": "floatBufferViews",
      "target": 34962
    },
    {
      "buffer": 0,
      "byteLength": 21616,
      "byteOffset": 70976,
      "byteStride": 16,
      "name": "floatBufferViews",
      "target": 34962
    }
  ],
  "buffers": [
    {
      "byteLength": 92592,
      "uri": "scene.bin"
    }
  ],
  "images": [
    {
      "uri": "textures/Small_Chest_PBR_baseColor.jpeg"
    },
    {
      "uri": "textures/Small_Chest_PBR_metallicRoughness.png"
    },
    {
      "uri": "textures/Small_Chest_PBR_normal.jpeg"
    }
  ],
  "materials": [
    {
      "doubleSided": true,
      "name": "Small_Chest_PBR",
      "normalTexture": {
        "index": 2
      },
      "occlusionTexture": {
        "index": 1
      },
      "pbrMetallicRoughness": {
        "baseColorTexture": {
          "index": 0
        },
        "metallicRoughnessTexture": {
          "index": 1
        }
      }
    }
  ],
  "meshes": [
    {
      "name": "Small Chest_Small Chest PBR_0",
      "primitives": [
        {
          "attributes": {
            "NORMAL": 1,
            "POSITION": 0,
            "TANGENT": 2,
            "TEXCOORD_0": 3
          },
          "indices": 4,
          "material": 0,
          "mode": 4
        }
      ]
    }
  ],
  "nodes": [
    {
      "children": [
        1
      ],
      "matrix": [
        1.0,
        0.0,
        0.0,
        0.0,
        0.0,
        2.220446049250313e-16,
        -1.0,
        0.0,
        0.0,
        1.0,
        2.220446049250313e-16,
        0.0,
        0.0,
        0.0,
        0.0,
        1.0
      ],
      "name": "Sketchfab_model"
    },
    {
      "children": [
        2
      ],
      "matrix": [
        0.009999999776482582,
        0.0,
        0.0,
        0.0,
        0.0,
        0.0,
        0.009999999776482582,
        0.0,
        0.0,
        -0.009999999776482582,
        0.0,
        0.0,
        0.0,
        0.0,
        0.0,
        1.0
      ],
      "name": "3821ceb6a1a84ec4850979c5079d0f49.fbx"
    },
    {
      "children": [
        3
      ],
      "name": "RootNode"
    },
    {
      "children": [
        4
      ],
      "matrix": [
        100.0,
        0.0,
        0.0,
        0.0,
        0.0,
        -1.629206793918314e-05,
        -99.99999999999868,
        0.0,
        0.0,
        99.99999999999868,
        -1.629206793918314e-05,
        0.0,
        0.0,
        7.4989519119262695,
        0.0,
        1.0
      ],
      "name": "Small Chest"
    },
    {
      "mesh": 0,
      "name": "Small Chest_Small Chest PBR_0"
    }
  ],
  "samplers": [
    {
      "magFilter": 9729,
      "minFilter": 9987,
      "wrapS": 10497,
      "wrapT": 10497
    }
  ],
  "scene": 0,
  "scenes": [
    {
      "name": "Sketchfab_Scene",
      "nodes": [
        0
      ]
    }
  ],
  "textures": [
    {
      "sampler": 0,
      "source": 0
    },
    {
      "sampler": 0,
      "source": 1
    },
    {
      "sampler": 0,
      "source": 2
    }
  ]
}
